<?xml version="1.0" encoding="UTF-8"?><svg id="Layer_1" xmlns="http://www.w3.org/2000/svg" xmlns:xlink="http://www.w3.org/1999/xlink" viewBox="0 0 1920.23 703.04"><defs><style>.cls-1{stroke:url(#linear-gradient-10);}.cls-1,.cls-2,.cls-3,.cls-4,.cls-5,.cls-6,.cls-7,.cls-8,.cls-9,.cls-10,.cls-11,.cls-12,.cls-13,.cls-14,.cls-15,.cls-16,.cls-17,.cls-18,.cls-19,.cls-20,.cls-21,.cls-22,.cls-23,.cls-24,.cls-25,.cls-26,.cls-27{fill:none;stroke-miterlimit:10;stroke-width:2px;}.cls-2{stroke:url(#linear-gradient-13);}.cls-3{stroke:url(#linear-gradient-2);}.cls-4{stroke:url(#linear-gradient-4);}.cls-5{stroke:url(#linear-gradient-26);}.cls-6{stroke:url(#linear-gradient-3);}.cls-7{stroke:url(#linear-gradient-23);}.cls-8{stroke:url(#linear-gradient-14);}.cls-9{stroke:url(#linear-gradient-25);}.cls-10{stroke:url(#linear-gradient-9);}.cls-11{stroke:url(#linear-gradient);}.cls-12{stroke:url(#linear-gradient-11);}.cls-13{stroke:url(#linear-gradient-17);}.cls-14{stroke:url(#linear-gradient-27);}.cls-15{stroke:url(#linear-gradient-15);}.cls-16{stroke:url(#linear-gradient-16);}.cls-17{stroke:url(#linear-gradient-12);}.cls-18{stroke:url(#linear-gradient-7);}.cls-19{stroke:url(#linear-gradient-21);}.cls-20{stroke:url(#linear-gradient-19);}.cls-21{stroke:url(#linear-gradient-22);}.cls-22{stroke:url(#linear-gradient-18);}.cls-23{stroke:url(#linear-gradient-5);}.cls-24{stroke:url(#linear-gradient-20);}.cls-25{stroke:url(#linear-gradient-8);}.cls-26{stroke:url(#linear-gradient-24);}.cls-27{stroke:url(#linear-gradient-6);}</style><linearGradient id="linear-gradient" x1="0" y1="599.04" x2="1920.23" y2="599.04" gradientTransform="matrix(1, 0, 0, 1, 0, 0)" gradientUnits="userSpaceOnUse"><stop offset="0" stop-color="#ff161c"/><stop offset=".01" stop-color="#ff2421"/><stop offset=".1" stop-color="#ff7f44"/><stop offset=".17" stop-color="#ffb85a"/><stop offset=".2" stop-color="#ffce63"/><stop offset=".28" stop-color="#e1d973"/><stop offset=".46" stop-color="#9ef497"/><stop offset=".55" stop-color="#84ffa6"/><stop offset=".63" stop-color="#82f7bc"/><stop offset=".81" stop-color="#7fe2f7"/><stop offset=".82" stop-color="#7fe2fa"/><stop offset=".83" stop-color="#86ddf5"/><stop offset=".88" stop-color="#afc0de"/><stop offset=".93" stop-color="#cdaccd"/><stop offset=".97" stop-color="#df9fc2"/><stop offset="1" stop-color="#e69bbf"/></linearGradient><linearGradient id="linear-gradient-2" x1="0" y1="586.43" x2="1920.23" y2="586.43" xlink:href="#linear-gradient"/><linearGradient id="linear-gradient-3" x1="0" y1="573.84" x2="1920.23" y2="573.84" xlink:href="#linear-gradient"/><linearGradient id="linear-gradient-4" x1=".01" y1="556.83" x2="1920.23" y2="556.83" xlink:href="#linear-gradient"/><linearGradient id="linear-gradient-5" x1=".02" y1="539.07" x2="1920.23" y2="539.07" xlink:href="#linear-gradient"/><linearGradient id="linear-gradient-6" x1=".02" y1="518.72" x2="1920.23" y2="518.72" xlink:href="#linear-gradient"/><linearGradient id="linear-gradient-7" x1=".03" y1="502.42" x2="1920.23" y2="502.42" xlink:href="#linear-gradient"/><linearGradient id="linear-gradient-8" x1=".03" y1="487.15" x2="1920.23" y2="487.15" xlink:href="#linear-gradient"/><linearGradient id="linear-gradient-9" x1=".03" y1="471.77" x2="1920.23" y2="471.77" xlink:href="#linear-gradient"/><linearGradient id="linear-gradient-10" x1=".04" y1="456.29" x2="1920.23" y2="456.29" xlink:href="#linear-gradient"/><linearGradient id="linear-gradient-11" x1=".04" y1="439.93" x2="1920.23" y2="439.93" xlink:href="#linear-gradient"/><linearGradient id="linear-gradient-12" x1=".05" y1="429.62" x2="1920.23" y2="429.62" xlink:href="#linear-gradient"/><linearGradient id="linear-gradient-13" x1=".05" y1="419.76" x2="1920.23" y2="419.76" xlink:href="#linear-gradient"/><linearGradient id="linear-gradient-14" x1=".06" y1="409.58" x2="1920.23" y2="409.58" xlink:href="#linear-gradient"/><linearGradient id="linear-gradient-15" x1=".06" y1="399.07" x2="1920.23" y2="399.07" xlink:href="#linear-gradient"/><linearGradient id="linear-gradient-16" x1=".07" y1="388.21" x2="1920.23" y2="388.21" xlink:href="#linear-gradient"/><linearGradient id="linear-gradient-17" x1=".07" y1="377.03" x2="1920.23" y2="377.03" xlink:href="#linear-gradient"/><linearGradient id="linear-gradient-18" x1=".08" y1="365.53" x2="1920.23" y2="365.53" xlink:href="#linear-gradient"/><linearGradient id="linear-gradient-19" x1=".08" y1="353.75" x2="1920.23" y2="353.75" xlink:href="#linear-gradient"/><linearGradient id="linear-gradient-20" x1=".09" y1="341.72" x2="1920.23" y2="341.72" xlink:href="#linear-gradient"/><linearGradient id="linear-gradient-21" x1=".1" y1="329.47" x2="1920.23" y2="329.47" xlink:href="#linear-gradient"/><linearGradient id="linear-gradient-22" x1=".1" y1="317.06" x2="1920.23" y2="317.06" xlink:href="#linear-gradient"/><linearGradient id="linear-gradient-23" x1=".11" y1="304.51" x2="1920.23" y2="304.51" xlink:href="#linear-gradient"/><linearGradient id="linear-gradient-24" x1=".11" y1="291.86" x2="1920.23" y2="291.86" xlink:href="#linear-gradient"/><linearGradient id="linear-gradient-25" x1=".12" y1="279.14" x2="1920.23" y2="279.14" xlink:href="#linear-gradient"/><linearGradient id="linear-gradient-26" x1=".13" y1="266.35" x2="1920.23" y2="266.35" xlink:href="#linear-gradient"/><linearGradient id="linear-gradient-27" x1=".13" y1="253.51" x2="1920.23" y2="253.51" xlink:href="#linear-gradient"/></defs><path class="cls-11" d="M.18,506.03c92.25-16.81,158.38-4.03,202,11,76.48,26.36,106.83,67.61,164,57,59.11-10.97,68.03-62.75,115-60,53.72,3.15,61.03,71.99,119,82,58.64,10.12,78.42-55.62,140-58,99.84-3.87,133.39,165.66,225,164,71.24-1.29,77.44-104.3,201-149,19.84-7.18,85.36-29.95,159-11,101.24,26.05,110.6,104.66,181,104,61.55-.58,57.07-56.61,174-103,66.5-26.38,138.83-36.38,165-40,30.21-4.18,55.94-6.07,75-7"/><path class="cls-3" d="M.18,506.03c53.41-9.51,98.6-9.73,136.03-5.58,26.27,2.91,48.43,8.27,66.78,13.93,14.72,4.54,27.74,9.71,39.65,14.79,49.99,21.21,77.51,44.05,123.85,35.09,33.24-6.46,50.29-23.6,68.2-38.56,13.97-11.67,27.39-21.27,47.94-20.72,42.39,1.15,55.7,41.44,89.04,63.21,8.7,5.68,18.58,10.15,30.46,12.33,27.33,5,46.33-5.63,65.57-19.64,21.63-15.75,42.3-34.94,74.83-37.7,70.71-6.01,107.99,71.97,155.88,118.74,20.25,19.77,42.33,34.33,69.14,34.89,61.17,1.29,74.82-69.78,156.91-117.44,12.87-7.47,27.29-14.39,43.52-20.72,10.26-4,31.33-12.09,59.15-15.87,28.22-3.84,61.45-2.78,98.37,7.13,55.46,14.75,83.74,41.92,110.35,65.8,21.28,19.09,40.25,35.21,71.19,35.92,47.26,1.08,54.98-31.51,113-65.37,15.72-9.18,35.08-18.6,59.77-27.43,44.22-15.82,91-24.86,124.52-30.45,17.39-2.83,31.6-4.6,40.66-5.73,30.27-3.78,56.05-5.68,75.19-6.61"/><path class="cls-6" d="M.18,506.03c53.05-9.21,98.5-9.9,136.63-6.52,26.25,2.32,48.47,7.17,66.99,12.22,14.69,4.01,27.71,8.7,39.71,13.15,50.41,18.5,76.78,38.95,123.29,29.61,33.6-6.82,50.33-22.37,69.15-37.34,14.37-11.43,27.87-20.8,48.13-21.21,42.1-.86,55.34,36.4,89.25,56.97,8.92,5.41,18.9,9.81,30.75,12.11,27.2,5.25,46.26-4.1,66.04-17.88,22.01-15.34,42.45-34.55,74.75-38.79,71.12-9.34,108.21,63.32,155.97,107.95,20.38,19.04,42.52,33.69,69.07,35.31,60.58,3.71,75.02-60.84,156.34-106.44,13.02-7.3,27.51-14.2,43.52-20.88,10.6-4.43,31.38-13.09,58.96-16.45s60.04-.3,97.07,9.97c55,15.25,83.7,39.09,111.34,62.61,21.75,18.51,40.4,35.12,70.75,36.83,46.02,2.6,54.02-27.72,111.87-57.98,15.78-8.26,35.15-16.8,59.66-24.62,44.55-14.21,91.59-22.14,124.62-27.19,17.28-2.64,31.51-4.15,40.76-5.19,30.33-3.4,56.17-5.28,75.39-6.22"/><path class="cls-4" d="M.18,506.03c52.68-8.91,98.4-10.05,137.23-7.46,26.23,1.75,48.51,6.07,67.2,10.51,14.66,3.48,27.68,7.73,39.76,11.52,50.79,15.92,76.04,33.85,122.74,24.13,33.95-7.18,50.36-21.14,70.1-36.12,14.76-11.19,28.35-20.96,48.32-21.71,41.85-1.59,55,31.37,89.46,50.73,9.14,5.14,19.22,9.47,31.03,11.89,27.08,5.51,46.19-2.58,66.52-16.13,22.4-14.93,42.62-34.19,74.68-39.89,71.55-12.7,108.46,54.67,156.05,97.16,20.51,18.31,42.71,33.05,69,35.73,59.99,6.12,75.26-51.86,155.76-95.43,13.18-7.14,27.72-14.03,43.53-21.05,10.94-4.86,31.45-14.09,58.77-17.02,28.54-3.07,58.63,2.13,95.78,12.8,54.57,15.68,83.65,36.26,112.33,59.42,22.21,17.93,40.54,35.01,70.31,37.74,44.78,4.1,53.11-23.92,110.75-50.6,15.86-7.34,35.23-14.99,59.56-21.81,44.91-12.59,92.19-19.35,124.71-23.92,17.18-2.42,31.43-3.7,40.85-4.64,30.38-3.02,56.28-4.89,75.58-5.84"/><path class="cls-23" d="M.18,506.03c52.31-8.62,98.29-10.2,137.83-8.39,26.21,1.2,48.53,4.98,67.41,8.79,14.62,2.95,27.65,6.73,39.81,9.88,51.2,13.25,75.3,28.76,122.18,18.64,34.31-7.54,50.38-19.92,71.05-34.89,15.14-10.96,28.84-20.81,48.51-22.21,41.59-2.97,54.66,26.32,89.68,44.49,9.37,4.86,19.54,9.12,31.32,11.67,26.95,5.77,46.11-1.06,66.99-14.38,22.78-14.53,42.79-33.86,74.61-40.98,72.01-16.12,108.72,46.01,156.14,86.37,20.65,17.57,42.91,32.41,68.94,36.15,59.39,8.53,75.52-42.86,155.18-84.43,13.35-6.97,27.92-13.88,43.53-21.21,11.28-5.3,31.51-15.08,58.58-17.6,28.7-2.67,57.23,4.56,94.48,15.64,54.14,16.1,83.58,33.43,113.31,56.22,22.66,17.36,40.67,34.9,69.86,38.65,43.51,5.59,52.26-20.12,109.62-43.21,15.95-6.42,35.33-13.17,59.45-19,45.29-10.95,92.79-16.56,124.81-20.66,17.09-2.19,31.34-3.26,40.94-4.1,30.44-2.66,56.4-4.49,75.77-5.45"/><path class="cls-27" d="M.18,506.03c51.94-8.32,98.17-10.33,138.43-9.33,26.18,.65,48.56,3.89,67.62,7.08,14.57,2.43,27.63,5.74,39.87,8.25,51.62,10.58,74.59,23.76,121.63,13.16,34.69-7.82,50.39-18.7,72.01-33.67,15.51-10.74,29.33-20.67,48.7-22.71,41.34-4.36,54.34,21.27,89.89,38.25,9.6,4.59,19.86,8.78,31.61,11.45,26.82,6.02,46.02,.46,67.46-12.62,23.15-14.13,42.97-33.54,74.54-42.07,72.49-19.58,109.01,37.35,156.22,75.58,20.79,16.84,43.1,31.77,68.87,36.57,58.8,10.94,75.81-33.83,154.61-73.43,13.52-6.79,28.12-13.74,43.53-21.37,11.62-5.75,31.58-16.06,58.39-18.17,28.87-2.27,55.83,6.99,93.19,18.47,53.71,16.51,83.5,30.62,114.3,53.03,23.09,16.8,40.79,34.78,69.42,39.56,42.24,7.06,51.46-16.29,108.5-35.82,16.06-5.5,35.44-11.32,59.34-16.19,45.71-9.3,93.39-13.76,124.9-17.4,16.99-1.96,31.25-2.81,41.04-3.55,30.49-2.29,56.51-4.1,75.96-5.06"/><path class="cls-18" d="M.18,506.03c51.57-8.02,98.09-12.09,139.02-10.27,26.12,1.16,48.57,2.81,67.83,5.36,14.52,1.92,27.6,4.74,39.92,6.61,52.04,7.91,73.85,18.68,121.08,7.68,35.05-8.17,50.4-17.5,72.96-32.45,15.88-10.52,29.82-20.53,48.88-23.21,41.1-5.77,54.03,16.2,90.1,32.01,9.83,4.31,20.18,8.44,31.89,11.22,26.7,6.28,45.94,1.97,67.93-10.87,23.52-13.73,43.15-33.26,74.46-43.16,72.98-23.09,109.32,28.67,156.31,64.79,20.95,16.1,43.29,31.13,68.81,36.99,58.21,13.35,76.12-24.76,154.03-62.43,13.69-6.62,28.32-13.63,43.54-21.53,11.96-6.21,31.64-17.03,58.19-18.74,29.04-1.87,54.43,9.41,91.89,21.31,53.28,16.92,83.41,27.81,115.28,49.84,23.52,16.25,40.9,34.64,68.98,40.47,40.95,8.5,50.73-12.42,107.37-28.43,16.18-4.57,35.56-9.47,59.24-13.38,46.16-7.63,94-10.96,124.99-14.13,16.89-1.73,31.16-2.37,41.13-3,30.54-1.94,56.63-3.7,76.16-4.67"/><path class="cls-25" d="M.18,506.03c51.2-7.73,97.93-12.37,139.62-11.2,26.11,.73,48.58,1.74,68.03,3.65,14.47,1.42,27.58,3.74,39.97,4.98,52.47,5.23,73.12,13.6,120.52,2.19,35.4-8.52,50.4-16.3,73.91-31.23,16.24-10.31,30.32-20.41,49.07-23.71,40.87-7.2,53.73,11.13,90.31,25.76,10.07,4.03,20.5,8.1,32.18,11,26.57,6.54,45.85,3.48,68.4-9.12,23.88-13.34,43.33-32.99,74.39-44.25,73.47-26.64,109.65,19.99,156.39,54,21.11,15.36,43.49,30.5,68.74,37.41,57.61,15.76,76.46-15.66,153.46-51.42,13.86-6.44,28.51-13.53,43.54-21.7,12.29-6.68,31.71-18,58-19.32,29.21-1.46,53.02,11.82,90.6,24.14,52.85,17.33,83.31,25.01,116.27,46.65,23.93,15.71,41,34.49,68.54,41.38,39.65,9.92,50.05-8.52,106.25-21.05,16.32-3.64,35.7-7.59,59.13-10.57,46.63-5.92,94.6-8.15,125.09-10.87,16.8-1.49,31.07-1.93,41.22-2.46,30.59-1.59,56.74-3.31,76.35-4.29"/><path class="cls-10" d="M.18,506.03c50.83-7.43,97.79-10.64,140.22-12.14,26.08-.92,48.59,.68,68.24,1.94,14.42,.92,27.55,2.74,40.03,3.34,52.9,2.55,72.38,8.51,119.97-3.29,35.76-8.87,50.4-15.1,74.86-30,16.59-10.11,30.81-20.29,49.26-24.21,40.64-8.63,53.44,6.04,90.53,19.52,10.31,3.75,20.82,7.75,32.47,10.78,26.44,6.79,45.75,4.99,68.88-7.36s43.51-32.75,74.32-45.35c73.95-30.25,110,11.29,156.48,43.21,21.29,14.62,43.68,29.86,68.67,37.83,57.02,18.17,76.82-6.54,152.88-40.42,14.04-6.26,28.69-13.44,43.55-21.86,12.63-7.15,31.79-18.97,57.81-19.89,29.38-1.04,51.62,14.24,89.3,26.98,52.42,17.72,83.2,22.23,117.25,43.46,24.34,15.17,41.09,34.32,68.1,42.29,38.35,11.31,49.42-4.56,105.12-13.66,16.48-2.69,35.85-5.7,59.03-7.76,47.12-4.19,95.21-5.34,125.18-7.6,16.7-1.26,30.98-1.49,41.31-1.91,30.63-1.25,56.86-2.91,76.54-3.9"/><path class="cls-1" d="M.18,506.03c50.46-7.13,97.66-10.71,140.82-13.08,26.05-1.43,48.67-1.64,68.45,.22,14.3,1.34,27.53,1.88,40.08,1.71,53.32-.73,71.65,3.42,119.42-8.78,36.12-9.22,50.38-13.92,75.81-28.78,16.95-9.91,31.31-20.18,49.45-24.71,40.41-10.09,53.15,.95,90.74,13.28,10.54,3.46,21.14,7.41,32.75,10.56,26.31,7.05,45.66,6.49,69.35-5.61s43.69-32.52,74.24-46.44c74.43-33.89,110.37,2.57,156.56,32.42,21.47,13.87,43.87,29.22,68.61,38.25,56.43,20.58,77.21,2.63,152.3-29.42,14.22-6.07,28.87-13.37,43.55-22.02,12.95-7.64,31.86-19.92,57.62-20.46,29.56-.62,50.22,16.65,88.01,29.81,52,18.11,83.08,19.45,118.24,40.26,24.74,14.65,41.18,34.14,67.65,43.2,37.03,12.68,48.83-.54,104-6.27,16.65-1.73,36.01-6.3,58.92-4.95,47.61,2.81,95.82-2.53,125.28-4.34,16.61-1.02,30.89-1.05,41.41-1.37,30.68-.91,56.97-2.51,76.74-3.51"/><path class="cls-12" d="M.18,506.03c50.09-6.84,97.53-10.77,141.42-14.01,26.01-1.92,48.63-2.75,68.66-1.49,14.27,.89,27.51,.74,40.13,.07,53.76-2.84,70.91-1.67,118.86-14.26,36.48-9.58,50.37-12.74,76.77-27.56,17.3-9.71,31.81-20.08,49.64-25.21,40.18-11.56,52.87-4.16,90.95,7.04,10.79,3.17,21.46,7.07,33.04,10.34,26.19,7.31,45.56,7.99,69.82-3.86,24.96-12.2,43.86-32.32,74.17-47.53,74.89-37.58,110.77-6.16,156.65,21.63,21.66,13.12,44.07,28.58,68.54,38.67,55.83,22.99,77.61,11.82,151.73-18.42,14.41-5.88,29.04-13.3,43.56-22.18,13.28-8.13,31.94-21.83,57.43-21.04,29.72,.92,48.82,19.05,86.71,32.65,51.57,18.5,82.95,16.68,119.23,37.07,25.14,14.13,41.26,33.94,67.21,44.11,35.72,14.01,48.44-3.73,102.87,1.12,16.78,1.49,36.28-4.45,58.81-2.14,47.9,4.92,96.43,.3,125.37-1.07,16.52-.78,30.8-.62,41.5-.82,30.73-.58,57.09-2.12,76.93-3.12"/><path class="cls-17" d="M.18,506.03c49.72-6.54,97.4-10.82,142.02-14.95,25.98-2.41,48.59-2.46,68.87-3.21,14.24-.53,27.49-.26,40.19-1.56,54.19-5.54,70.18-6.77,118.31-19.74,36.84-9.93,50.35-11.57,77.72-26.34,17.65-9.52,32.31-19.98,49.83-25.71,39.95-13.05,52.59-9.27,91.16,.8,11.03,2.88,21.78,6.73,33.33,10.12,26.06,7.56,45.46,9.49,70.29-2.1s44.02-32.13,74.1-48.62c75.33-41.31,111.19-14.91,156.73,10.84,21.87,12.36,44.26,27.94,68.48,39.09,55.24,25.41,78.03,21.05,151.15-7.41,14.6-5.68,29.21-13.24,43.56-22.34,13.6-8.63,32.03-22.8,57.24-21.61,29.88,1.41,47.43,21.46,85.42,35.48,51.15,18.88,82.81,13.93,120.21,33.88,25.53,13.62,41.35,33.71,66.77,45.02,34.41,15.31,48.36,.3,101.74,8.5,16.82,2.58,36.56-2.54,58.71,.67,48.2,6.99,97.04,3.12,125.47,2.19,16.42-.54,30.71,.1,41.59-.27,30.76-1.05,57.2-1.72,77.12-2.73"/><path class="cls-2" d="M.18,506.03c49.35-6.24,97.27-10.85,142.62-15.89,25.94-2.88,48.58-3.48,69.08-4.92,14.18-.99,27.46-1.27,40.24-3.2,54.62-8.24,69.44-11.86,117.75-25.23,37.2-10.29,50.32-10.41,78.67-25.11,17.99-9.34,32.8-19.9,50.01-26.21,39.72-14.55,52.31-14.4,91.38-5.44,11.27,2.59,22.1,6.38,33.61,9.9,25.93,7.82,45.36,10.98,70.76-.35s44.17-31.95,74.02-49.71c75.75-45.07,111.63-23.68,156.81,.05,22.08,11.6,44.45,27.3,68.41,39.51,54.65,27.82,78.46,30.31,150.58,3.59,14.79-5.48,29.38-13.19,43.56-22.51s32.08-22.75,57.05-22.19c30.09,.68,46.03,23.85,84.12,38.32,50.73,19.26,82.67,11.18,121.2,30.69,25.92,13.12,41.43,33.47,66.33,45.93,33.11,16.58,47.22,11.95,100.62,15.89,17.2,1.27,36.5,2.1,58.6,3.49,49.22,3.1,97.65,5.96,125.56,5.46,16.33-.29,30.62,.53,41.69,.27,30.81-.73,57.31-1.33,77.31-2.35"/><path class="cls-8" d="M.18,506.03c48.98-5.95,97.14-10.87,143.22-16.82,25.91-3.35,48.58-4.5,69.29-6.63,14.12-1.46,27.44-2.27,40.29-4.83,55.05-10.95,68.7-16.96,117.2-30.71,37.55-10.65,50.3-9.25,79.62-23.89,18.33-9.15,33.3-19.82,50.2-26.7,39.48-16.08,52.04-19.54,91.59-11.68,11.51,2.29,22.42,6.04,33.9,9.68,25.8,8.08,45.26,12.47,71.24,1.4s44.31-31.79,73.95-50.8c76.15-48.87,112.09-32.48,156.9-10.74,22.3,10.82,44.65,26.67,68.34,39.93,54.05,30.23,78.92,39.6,150,14.59,14.98-5.27,29.53-13.15,43.57-22.67s32.15-23.69,56.86-22.76c30.26,1.13,44.63,26.25,82.83,41.15,50.31,19.62,82.52,8.45,122.18,27.5,26.3,12.63,41.53,33.2,65.89,46.85,31.81,17.82,46.69,16.26,99.49,23.28,17.39,2.31,36.67,4.09,58.5,6.3,49.76,5.02,98.28,7.85,125.66,8.72,16.23,.52,30.53,.97,41.78,.82,30.87-.4,57.43-.93,77.51-1.96"/><path class="cls-15" d="M.18,506.03c48.61-5.65,97.02-10.87,143.81-17.76,25.88-3.81,48.58-5.51,69.5-8.35,14.06-1.91,27.42-3.28,40.35-6.47,55.48-13.67,67.97-22.06,116.65-36.19,37.91-11.01,50.27-8.1,80.57-22.67,18.68-8.98,33.79-19.75,50.39-27.2,39.23-17.62,51.77-24.69,91.8-17.92,11.76,1.99,22.75,5.7,34.19,9.46,25.68,8.33,45.15,13.95,71.71,3.16s44.45-31.63,73.88-51.9c76.52-52.69,112.56-41.3,156.98-21.53,22.53,10.03,44.84,26.03,68.28,40.35,53.46,32.64,79.38,48.93,149.43,25.59,15.18-5.06,29.69-13.11,43.57-22.83,14.53-10.17,32.23-24.61,56.67-23.33,30.44,1.59,43.24,28.64,81.54,43.98,49.89,19.99,82.37,5.74,123.17,24.3,26.68,12.14,41.63,32.91,65.44,47.76,30.53,19.03,46.15,20.63,98.37,30.67,17.57,3.38,36.84,6.11,58.39,9.11,50.29,6.99,98.91,10.7,125.75,11.99,16.13,.77,30.44,1.11,41.87,1.37,30.92,.7,57.54-.54,77.7-1.57"/><path class="cls-16" d="M.18,506.03c48.25-5.36,96.89-10.86,144.41-18.7,25.85-4.26,48.59-6.5,69.71-10.06,14-2.36,27.39-4.29,40.4-8.1,55.91-16.38,67.23-27.16,116.09-41.68,38.27-11.37,50.23-6.96,81.53-21.45,19.02-8.8,34.27-19.68,50.58-27.7,38.98-19.17,51.5-29.84,92.01-24.16,12,1.68,23.07,5.36,34.47,9.24,25.55,8.59,45.05,15.43,72.18,4.91,26.72-10.37,44.57-31.48,73.8-52.99,76.86-56.54,113.06-50.15,157.07-32.32,22.76,9.22,45.03,25.39,68.21,40.77,52.87,35.05,79.86,58.29,148.85,36.6,15.38-4.84,29.84-13.08,43.58-22.99,14.83-10.7,32.3-25.53,56.48-23.91,30.61,2.05,41.85,31.03,80.24,46.82,49.48,20.35,82.21,3.03,124.16,21.11,27.05,11.66,41.75,32.61,65,48.67,29.27,20.21,45.58,25.06,97.24,38.05,17.75,4.47,37,8.15,58.28,11.92,50.81,9,99.49,14.49,125.84,15.25,16.06,.47,30.35,1.53,41.97,1.91,30.96,1,57.66-.14,77.89-1.18"/><path class="cls-13" d="M.18,506.03c47.88-5.06,96.78-10.83,145.01-19.63,25.82-4.71,48.59-7.49,69.92-11.78,13.95-2.8,27.37-5.3,40.45-9.73,56.33-19.11,66.49-32.26,115.54-47.16,38.62-11.73,50.2-5.83,82.48-20.22,19.36-8.63,34.76-19.63,50.77-28.2,38.72-20.74,51.22-35.01,92.23-30.4,12.24,1.38,23.39,5.01,34.76,9.01,25.42,8.85,44.94,16.91,72.65,6.66,27.07-10.01,44.68-31.34,73.73-54.08,77.17-60.41,113.56-59.03,157.15-43.11,23,8.4,45.22,24.75,68.15,41.18,52.27,37.46,80.34,67.69,148.27,47.6,15.58-4.61,29.98-13.05,43.58-23.16,15.12-11.23,32.37-26.44,56.29-24.48,30.79,2.53,40.46,33.41,78.95,49.65,49.06,20.7,82.05,.34,125.14,17.92,27.43,11.19,41.88,32.28,64.56,49.58,28.03,21.38,44.98,29.53,96.12,45.44,17.91,5.57,37.15,10.2,58.18,14.73,51.31,11.06,100.1,17.34,125.94,18.52,15.96,.73,30.26,1.96,42.06,2.46,31.01,1.31,57.77,.25,78.08-.8"/><path class="cls-22" d="M.18,506.03c47.51-4.76,96.66-10.79,145.61-20.57,25.79-5.15,48.6-8.47,70.13-13.49,13.89-3.24,27.34-6.31,40.5-11.37,56.75-21.83,65.75-37.37,114.98-52.65,38.98-12.1,50.16-4.7,83.43-19,19.69-8.47,35.23-19.57,50.96-28.7,38.44-22.32,50.95-40.19,92.44-36.64,12.49,1.07,23.71,4.67,35.05,8.79,25.3,9.1,44.84,18.38,73.12,8.42,27.42-9.66,44.79-31.21,73.66-55.17,77.46-64.29,114.07-67.95,157.24-53.9,23.25,7.57,45.42,24.11,68.08,41.6,51.68,39.87,80.83,77.11,147.7,58.6,15.78-4.37,30.12-13.02,43.59-23.32,15.4-11.78,32.45-27.35,56.09-25.06,30.96,3,39.07,35.79,77.65,52.49,48.65,21.05,81.88-2.34,126.13,14.73,27.8,10.73,42.04,31.94,64.12,50.49,26.81,22.52,44.34,34.05,94.99,52.83,18.06,6.7,37.3,12.26,58.07,17.54,51.8,13.16,100.71,20.21,126.03,21.78,15.87,.99,30.17,2.38,42.15,3,31.06,1.61,57.89,.65,78.28-.41"/><path class="cls-20" d="M.18,506.03c47.14-4.47,96.55-10.74,146.21-21.51,25.77-5.59,48.62-9.44,70.34-15.21,13.84-3.67,27.32-7.32,40.56-13,57.17-24.56,65.01-42.47,114.43-58.13,39.34-12.46,50.13-3.58,84.38-17.78,20.03-8.31,35.71-19.52,51.14-29.2,38.15-23.92,50.67-45.37,92.65-42.88,12.73,.75,24.03,4.33,35.33,8.57,25.17,9.36,44.73,19.85,73.6,10.17s44.88-31.08,73.58-56.26c77.71-68.19,114.59-76.89,157.32-64.68,23.5,6.71,45.61,23.47,68.01,42.02,51.09,42.28,81.33,86.57,147.12,69.6,15.98-4.12,30.26-13,43.59-23.48,15.68-12.32,32.52-28.25,55.9-25.63,31.13,3.49,37.68,38.17,76.36,55.32,48.24,21.4,81.72-5.01,127.11,11.54,28.18,10.27,42.21,31.58,63.68,51.4,25.61,23.65,43.65,38.6,93.86,60.22,18.19,7.83,37.44,14.34,57.97,20.35,52.26,15.29,101.33,23.07,126.13,25.05,15.78,1.26,30.08,2.81,42.24,3.55,31.11,1.9,58,1.04,78.47-.02"/><path class="cls-24" d="M.18,506.03c46.77-4.17,96.45-10.68,146.81-22.44,25.75-6.02,48.64-10.4,70.55-16.92,13.8-4.1,27.29-8.33,40.61-14.64,57.58-27.29,64.27-47.58,113.88-63.61,39.69-12.83,50.09-2.46,85.34-16.56,20.37-8.15,36.17-19.48,51.33-29.7,37.85-25.53,50.4-50.56,92.86-49.12,12.97,.44,24.35,3.99,35.62,8.35,25.04,9.62,44.62,21.31,74.07,11.92,28.11-8.97,44.96-30.95,73.51-57.36,77.94-72.1,115.11-85.87,157.41-75.47,23.76,5.84,45.8,22.84,67.95,42.44,50.49,44.69,81.83,96.06,146.55,80.61,16.19-3.87,30.39-12.98,43.59-23.64,15.96-12.88,32.59-29.15,55.71-26.2,31.3,3.99,36.3,40.54,75.06,58.16,47.84,21.74,81.55-7.67,128.1,8.34,28.55,9.82,42.41,31.21,63.23,52.31,24.44,24.77,42.92,43.17,92.74,67.6,18.31,8.98,37.56,16.43,57.86,23.16,52.69,17.47,101.94,25.95,126.22,28.31,15.69,1.53,29.99,3.23,42.34,4.1,31.16,2.19,58.12,1.44,78.66,.37"/><path class="cls-19" d="M.18,506.03c46.4-3.87,96.36-10.6,147.41-23.38,25.73-6.44,48.66-11.36,70.76-18.63,13.75-4.53,27.27-9.34,40.66-16.27,58-30.02,63.5-52.79,113.32-69.1,40.02-13.27,50.05-1.35,86.29-15.33,20.71-7.99,36.64-19.43,51.52-30.2,37.53-27.14,50.12-54.77,93.08-55.36,13.21-.18,24.67,3.64,35.91,8.13,24.91,9.87,44.51,22.78,74.54,13.68,28.46-8.62,45.04-30.82,73.44-58.45,78.15-76.02,115.63-94.88,157.49-86.26,24.01,4.94,46,22.2,67.88,42.86,49.9,47.11,82.33,105.58,145.97,91.61,16.4-3.6,30.51-12.97,43.6-23.81,16.22-13.44,32.65-30.04,55.52-26.78,31.47,4.49,34.91,42.91,73.77,60.99,47.43,22.08,81.39-10.31,129.08,5.15,28.92,9.38,42.64,30.83,62.79,53.22,23.3,25.88,42.15,47.75,91.61,74.99,18.41,10.14,37.68,18.53,57.75,25.97,53.09,19.68,102.54,28.83,126.32,31.58,15.59,1.8,29.9,3.64,42.43,4.64,31.21,2.48,58.23,1.83,78.86,.75"/><path class="cls-21" d="M.18,506.03c46.03-3.58,96.26-10.51,148.01-24.32,25.72-6.86,48.7-12.31,70.97-20.35,13.72-4.95,27.24-10.35,40.72-17.91,58.4-32.75,62.76-57.88,112.77-74.58,40.38-13.63,50.01-.25,87.24-14.11,21.05-7.84,37.09-19.39,51.71-30.7,37.2-28.77,49.83-60.97,93.29-61.6,13.45-.2,24.99,3.3,36.19,7.91,24.79,10.13,44.4,24.23,75.01,15.43,28.81-8.29,45.1-30.69,73.37-59.54,78.33-79.95,116.14-103.92,157.58-97.05,24.26,4.02,46.19,21.56,67.81,43.28,49.31,49.52,82.83,115.13,145.39,102.61,16.6-3.32,30.64-12.95,43.6-23.97,16.48-14,32.72-30.93,55.33-27.35,31.64,5.01,33.53,45.27,72.47,63.83,47.03,22.41,81.22-12.94,130.07,1.96,29.3,8.94,42.89,30.45,62.35,54.13,22.18,27,41.33,52.33,90.49,82.38,18.49,11.3,37.78,20.64,57.65,28.78,53.46,21.92,103.15,31.71,126.41,34.84,15.5,2.08,29.81,4.06,42.52,5.19,31.26,2.77,58.35,2.23,79.05,1.14"/><path class="cls-7" d="M.18,506.03c45.66-3.28,96.18-10.41,148.6-25.25,25.7-7.28,48.73-13.25,71.18-22.06,13.68-5.37,27.19-11.39,40.77-19.54,58.74-35.6,62.02-62.98,112.22-80.06,40.73-13.99,49.96,.85,88.19-12.89,21.38-7.68,37.54-19.35,51.9-31.2,36.85-30.4,49.54-66.18,93.5-67.84,13.69-.52,25.31,2.96,36.48,7.69,24.66,10.39,44.29,25.69,75.48,17.18,29.16-7.95,45.16-30.57,73.29-60.63,78.48-83.88,116.65-113,157.66-107.84,24.5,3.08,46.38,20.92,67.75,43.7,48.71,51.93,83.32,124.71,144.82,113.61,16.81-3.03,30.76-12.94,43.61-24.13,16.73-14.57,32.78-31.81,55.14-27.93,31.8,5.53,32.16,47.63,71.18,66.66,46.63,22.74,81.05-15.56,131.06-1.23,29.67,8.5,43.16,30.06,61.91,55.04,21.09,28.11,40.47,56.92,89.36,89.77,18.56,12.47,37.88,22.75,57.54,31.59,53.8,24.19,103.76,34.61,126.5,38.11,15.4,2.37,29.72,4.48,42.62,5.73,31.31,3.05,58.46,2.62,79.24,1.53"/><path class="cls-26" d="M.18,506.03c45.29-2.98,96.1-10.3,149.2-26.19,25.7-7.69,48.78-14.19,71.39-23.78,13.65-5.79,27.17-12.39,40.82-21.18,59.16-38.31,61.28-68.08,111.66-85.55,41.09-14.35,49.92,1.94,89.14-11.67,21.72-7.53,37.99-19.32,52.08-31.7,36.48-32.03,49.25-71.4,93.71-74.09,13.93-.84,25.63,2.62,36.77,7.47,24.53,10.64,44.18,27.14,75.96,18.94,29.5-7.62,45.22-30.44,73.22-61.72,78.62-87.82,117.13-122.11,157.75-118.63,24.74,2.12,46.58,20.28,67.68,44.12,48.12,54.34,83.81,134.32,144.24,124.61,17.02-2.73,30.88-12.93,43.61-24.29,16.98-15.15,32.84-32.69,54.95-28.5,31.96,6.06,30.78,49.99,69.88,69.5,46.24,23.07,80.88-18.18,132.04-4.42,30.05,8.08,43.46,29.67,61.47,55.95,20.03,29.23,39.57,61.5,88.24,97.15,18.61,13.64,37.95,24.87,57.44,34.4,54.1,26.49,104.36,37.51,126.6,41.37,15.3,2.66,29.63,4.89,42.71,6.28,31.37,3.33,58.57,3.02,79.43,1.92"/><path class="cls-9" d="M.18,506.03c44.92-2.69,96.03-10.17,149.8-27.13,25.69-8.1,48.83-15.12,71.6-25.49,13.62-6.2,27.14-13.39,40.88-22.81,59.57-41.01,60.55-73.17,111.11-91.03,41.45-14.71,49.88,3.02,90.1-10.44,22.06-7.39,38.43-19.28,52.27-32.19,36.11-33.67,48.95-76.62,93.93-80.33,14.16-1.17,25.95,2.27,37.06,7.25,24.41,10.9,44.08,28.58,76.43,20.69,29.85-7.29,45.26-30.32,73.15-62.82,78.73-91.75,117.6-131.24,157.83-129.42,24.97,1.13,46.77,19.64,67.62,44.54,47.53,56.75,84.29,143.96,143.67,135.62,17.22-2.42,30.99-12.92,43.62-24.45,17.22-15.73,32.9-33.56,54.76-29.07,32.11,6.6,29.41,52.34,68.59,72.33,45.85,23.39,80.72-20.77,133.03-7.62,30.42,7.65,43.79,29.29,61.03,56.86,18.98,30.36,38.63,66.07,87.11,104.54,18.65,14.8,38.02,26.98,57.33,37.21,54.37,28.8,104.96,40.41,126.69,44.64,15.2,2.96,29.55,5.3,42.8,6.83,31.42,3.61,58.69,3.41,79.63,2.31"/><path class="cls-5" d="M.18,506.03c44.55-2.39,95.97-10.04,150.4-28.06,25.69-8.51,48.89-16.05,71.81-27.2,13.6-6.62,27.11-14.4,40.93-24.45,59.99-43.72,59.81-78.27,110.55-96.52,41.8-15.07,49.81,4.03,91.05-9.22,22.38-7.29,38.86-19.24,52.46-32.69,35.71-35.32,48.65-81.84,94.14-86.57,14.4-1.49,26.27,1.93,37.34,7.03,24.28,11.16,43.96,29.98,76.9,22.44,30.19-7,45.3-30.19,73.07-63.91,78.82-95.69,118.04-139.74,157.92-140.21,25.19-.3,46.96,19.01,67.55,44.96,46.93,59.16,84.76,153.63,143.09,146.62,17.43-2.09,31.1-12.91,43.62-24.62,17.45-16.32,32.96-34.43,54.57-29.65,32.26,7.14,28.06,54.64,67.29,75.17,45.49,23.66,80.55-23.36,134.01-10.81,30.8,7.23,44.13,28.92,60.58,57.77,17.96,31.5,37.66,70.63,85.98,111.93,18.68,15.97,38.07,29.11,57.22,40.02,54.6,31.13,105.55,43.32,126.79,47.9,15.09,3.26,29.46,5.69,42.89,7.37,31.48,3.84,58.8,3.81,79.82,2.69"/><path class="cls-14" d="M.18,506.03c44.18-2.09,95.92-9.9,151-29,40.82-14.16,75.51-26.19,113-55,60.41-46.42,59.07-83.37,110-102,42.16-15.43,49.8,5.18,92-8,82.81-25.86,83.57-118.1,147-126,46.65-5.81,66.18,41.6,115,31,30.55-6.63,45.33-30.06,73-65C880.07,52.4,919.63,2.45,959.18,1.03c83.27-2.99,127.56,211.19,210,203,42.72-4.25,61.62-63.65,98-55,32.4,7.7,26.67,57.03,66,78,45.07,24.03,80.39-25.94,135-14,64.97,14.21,52.34,93.13,145,178,72.62,66.52,156.07,87.36,184,94,49.71,11.82,92.8,12.61,123,11"/></svg>